<svg width="330" height="330" xmlns="http://www.w3.org/2000/svg" class="playing" id="player"><style>ellipse.red { fill: hsl(0,100%,80%); } ellipse.yellow { fill: hsl(60,100%,80%); } ellipse.green { fill: hsl(120,100%,80%); } ellipse.teal { fill: hsl(180,100%,80%); } ellipse.blue { fill: hsl(240,100%,80%); } ellipse.purple { fill: hsl(300,100%,80%); } line, path { stroke-width: 2; stroke: #000; } text { text-anchor: middle; font-family: Helvetica, Arial, sans-serif; font-size: 22px; fill: #000; } ellipse { stroke-width: 2; stroke: #000; fill: #FFF } .step { font-size:18px; } #arrow path { stroke-width: 1; }</style><marker id="arrow" viewBox="-1 0 12 10" refX="10.5" refY="5" markerWidth="8" markerHeight="8" orient="auto"><path d="M0 0l10 5-10 5" fill="transparent"/></marker><marker id="arrow-start" viewBox="-1 0 12 10" refX="10.5" refY="5" markerWidth="8" markerHeight="8" orient="90"><path d="M0 0l10 5-10 5" fill="transparent"/></marker><g transform="translate(300 30)"><path d="M0 70V20" marker-end="url(#arrow)"/><path d="M-17.32 10l-145.36 70" marker-end="url(#arrow)"/><ellipse ry="20" rx="20"/><text y="7">3</text><g transform="translate(0 90)"><ellipse ry="20" rx="20"/><text y="7">4</text></g><g transform="translate(-90 90)"><path d="M14.142-14.142l61.716-61.716" marker-end="url(#arrow)"/><path d="M0 20v50" marker-end="url(#arrow)"/><path d="M20 0h50" marker-end="url(#arrow)"/><path d="M0 70V20" marker-end="url(#arrow)"/><ellipse ry="20" rx="20"/><text y="7">5</text><g transform="translate(0 90)"><ellipse ry="20" rx="20"/><text y="7">12</text></g></g><g transform="translate(-180 90)"><path d="M0 70V20" marker-end="url(#arrow)"/><path d="M-14.142 14.142l-61.716 61.716" marker-end="url(#arrow)"/><path d="M17.32-10l145.36-70" marker-end="url(#arrow)"/><path d="M20 0h50" marker-end="url(#arrow)"/><ellipse ry="20" rx="20"/><text y="7">6</text><g transform="translate(0 90)"><ellipse ry="20" rx="20"/><text y="7">11</text></g><g transform="translate(-90 90)"><path d="M14.142-14.142l61.716-61.716" marker-end="url(#arrow)"/><path d="M0 20v50" marker-end="url(#arrow)"/><path d="M20 0h50" marker-end="url(#arrow)"/><path d="M0 70V20" marker-end="url(#arrow)"/><ellipse ry="20" rx="20"/><text y="7">8</text><g transform="translate(0 90)"><ellipse ry="20" rx="20"/><text y="7">9</text></g></g></g></g></svg>